# xmcd CD database file
#
# Track frame offsets:
#	150
#	15012
#	30124
#	43511
#	59727
#	76008
#	91340
#	102124
#	114226
#	125034
#
# Disc length: 1894 seconds
#
# Revision: 0
# Processed by: cddbd v1.5.2PL0 Copyright (c) Steve Scherf et al.
# Submitted via: CDex 1.51
#
DISCID=6607640a
DTITLE=Kris Kristofferson - Feeling Mortal
DYEAR=2012
DGENRE=Country
TTITLE0=Feeling Mortal
TTITLE1=Mama Stewart
TTITLE2=Bread For The Body
TTITLE3=You Don't Tell Me What To Do
TTITLE4=Stairway To The Bottom
TTITLE5=Just Suppose
TTITLE6=Castaway
TTITLE7=My Heart Was The Last One To Know
TTITLE8=The One You Chose
TTITLE9=Ramblin' Jack
EXTD=YEAR: 2012
EXTT0=
EXTT1=
EXTT2=
EXTT3=
EXTT4=
EXTT5=
EXTT6=
EXTT7=
EXTT8=
EXTT9=
PLAYORDER=
